#!OML:ASF H:\GeneralSubjects\Female5\Project 1\Capture day 1\Session 1\Female5.ASF
:FULLY-SPECIFIED
:DEGREES
462
root 21.5655 15.8581 7.5472 0.640004 82.4117 -6.14543
lowerback 6.45258 0.772581 1.22377
upperback -8.58963 1.5629 1.41456
thorax -12.9735 0.796913 0.567927
lowerneck -11.4046 -1.08029 0.61668
upperneck 37.7056 0.2652 -1.35194
head 15.0254 0.584088 -0.484081
rclavicle -8.94531e-016 -3.06128e-014
rhumerus -46.2553 20.2398 -79.9154
rradius 42.8377
rwrist -6.4103
rhand -21.9869 -19.779
rfingers 7.12502
rthumb 4.42146 -49.7129
lclavicle -8.94531e-016 -3.06128e-014
lhumerus -45.1627 -3.87116 85.0356
lradius 35.1773
lwrist -15.9734
lhand -26.9077 27.2365
lfingers 7.12502
lthumb -0.330945 57.216
rfemur -14.9153 -0.0979704 27.5883
rtibia 41.1737
rfoot -14.4965 -11.9108
rtoes -34.8723
lfemur 2.7162 -16.9123 -35.1408
ltibia 10.0397
lfoot -6.80369 -12.1395
ltoes -14.6825
463
root 21.6562 15.8428 7.57639 1.57146 82.8075 -5.27092
lowerback 6.83463 0.720589 0.65498
upperback -8.46742 1.40753 1.36795
thorax -13.0795 0.769185 0.858884
lowerneck -11.4871 -1.05729 0.959117
upperneck 37.9973 0.36129 -1.65937
head 15.1895 0.642849 -0.658686
rclavicle -1.09332e-015 2.38542e-015
rhumerus -46.7743 19.897 -80.0831
rradius 42.1955
rwrist -6.01002
rhand -22.0467 -19.7599
rfingers 7.12502
rthumb 4.36363 -49.695
lclavicle -1.09332e-015 2.38542e-015
lhumerus -45.4521 -3.1966 83.9952
lradius 32.8973
lwrist -17.5535
lhand -26.6487 27.0653
lfingers 7.12502
lthumb -0.0807528 57.045
rfemur -16.9411 0.784592 27.5333
rtibia 41.6133
rfoot -15.4433 -12.871
rtoes -33.5206
lfemur 3.165 -17.2109 -35.3851
ltibia 9.79723
lfoot -6.76696 -12.0094
ltoes -14.9527
464
root 21.7465 15.8293 7.61064 2.63973 83.2096 -4.33037
lowerback 7.18554 0.688866 0.0907926
upperback -8.35698 1.2734 1.29259
thorax -13.1778 0.750143 1.11395
lowerneck -11.5146 -1.08544 1.36094
upperneck 38.347 0.391265 -2.00869
head 15.37 0.680799 -0.873369
rclavicle 1.71452e-014 5.1684e-015
rhumerus -47.279 19.233 -80.1382
rradius 41.5467
rwrist -5.65766
rhand -22.1016 -19.7323
rfingers 7.12502
rthumb 4.31063 -49.6684
lclavicle 1.71452e-014 5.1684e-015
lhumerus -45.4657 -2.4189 82.6354
lradius 30.6777
lwrist -19.2112
lhand -26.2317 27.0375
lfingers 7.12502
lthumb 0.321922 57.017
rfemur -18.9269 1.94627 27.4696
rtibia 41.283
rfoot -16.4428 -13.8982
rtoes -32.0154
lfemur 3.62027 -17.5367 -35.5895
ltibia 9.40488
lfoot -6.82919 -11.8475
ltoes -15.1316
465
root 21.8372 15.8184 7.64722 3.7037 83.6075 -3.44544
lowerback 7.52016 0.694623 -0.38221
upperback -8.24829 1.19379 1.17121
thorax -13.2652 0.745742 1.25846
lowerneck -11.4735 -1.17797 1.79096
upperneck 38.7245 0.335466 -2.38144
head 15.5475 0.687713 -1.11856
rclavicle -1.35174e-014 8.34896e-015
rhumerus -47.7945 18.1768 -80.0485
rradius 40.9665
rwrist -5.33319
rhand -22.0912 -19.7007
rfingers 7.12502
rthumb 4.32072 -49.6366
lclavicle -1.35174e-014 8.34896e-015
lhumerus -45.2557 -1.52444 80.9766
lradius 28.6649
lwrist -20.8924
lhand -25.7573 27.1204
lfingers 7.12502
lthumb 0.780134 57.0987
rfemur -20.8192 3.31809 27.3632
rtibia 40.2232
rfoot -17.4307 -14.9677
rtoes -30.4341
lfemur 4.08952 -17.8763 -35.7541
ltibia 8.91064
lfoot -6.97776 -11.6592
ltoes -15.2188
466
root 21.9294 15.8101 7.68402 4.64366 84.003 -2.72165
lowerback 7.84834 0.726519 -0.742438
upperback -8.14149 1.15905 1.0171
thorax -13.3486 0.750013 1.29561
lowerneck -11.3847 -1.30657 2.16593
upperneck 39.164 0.225536 -2.67546
head 15.7448 0.680381 -1.33089
rclavicle -6.41081e-015 -3.57812e-015
rhumerus -48.3447 16.8654 -79.8667
rradius 40.4845
rwrist -5.08452
rhand -21.9853 -19.7171
rfingers 7.12502
rthumb 4.42299 -49.6509
lclavicle -6.41081e-015 -3.57812e-015
lhumerus -44.9164 -0.486851 79.0825
lradius 26.9973
lwrist -22.4811
lhand -25.3881 27.2943
lfingers 7.12502
lthumb 1.13676 57.271
rfemur -22.5551 4.83986 27.183
rtibia 38.4467
rfoot -18.3212 -16.0482
rtoes -28.7401
lfemur 4.57328 -18.2238 -35.8812
ltibia 8.3559
lfoot -7.17355 -11.4687
ltoes -15.2431
467
root 22.0244 15.8041 7.71996 5.34843 84.407 -2.2674
lowerback 8.16556 0.783303 -0.946639
upperback -8.03933 1.17404 0.821473
thorax -13.4275 0.760488 1.18972
lowerneck -11.2465 -1.46205 2.45604
upperneck 39.6427 0.0744611 -2.87048
head 15.951 0.66212 -1.49332
rclavicle -2.06736e-014 -3.77691e-015
rhumerus -48.9553 15.4537 -79.6926
rradius 40.0951
rwrist -4.98708
rhand -21.8069 -19.817
rfingers 7.12502
rthumb 4.59524 -49.7471
lclavicle -2.06736e-014 -3.77691e-015
lhumerus -44.5063 0.581108 77.074
lradius 25.7668
lwrist -23.8127
lhand -25.2099 27.5342
lfingers 7.12502
lthumb 1.30882 57.51
rfemur -24.0729 6.47499 26.9096
rtibia 35.944
rfoot -19.0225 -17.0907
rtoes -26.9499
lfemur 5.06469 -18.5781 -35.9673
ltibia 7.75407
lfoot -7.37361 -11.2738
ltoes -15.2753
468
root 22.1233 15.7997 7.75559 5.62705 84.8304 -2.27901
lowerback 8.458 0.876363 -0.919608
upperback -7.94282 1.26279 0.548694
thorax -13.4916 0.778945 0.854017
lowerneck -11.0845 -1.64187 2.64485
upperneck 40.155 -0.133144 -2.91062
head 16.1704 0.631075 -1.57994
rclavicle 5.28022e-015 2.48481e-015
rhumerus -49.6377 13.999 -79.6204
rradius 39.7709
rwrist -5.05164
rhand -21.6002 -19.9781
rfingers 7.12502
rthumb 4.79477 -49.9038
lclavicle 5.28022e-015 2.48481e-015
lhumerus -44.0253 1.43638 75.1035
lradius 25.0231
lwrist -24.719
lhand -25.209 27.8527
lfingers 7.12502
lthumb 1.30976 57.8284
rfemur -25.3281 8.22851 26.5383
rtibia 32.7083
rfoot -19.4735 -17.9822
rtoes -24.9044
lfemur 5.54272 -18.9257 -35.9848
ltibia 7.11279
lfoot -7.53377 -11.0582
ltoes -15.3663
469
root 22.227 15.7965 7.7908 5.46613 85.2909 -2.77001
lowerback 8.71316 0.990188 -0.719205
upperback -7.84644 1.40251 0.240715
thorax -13.5268 0.802866 0.371558
lowerneck -10.9484 -1.82454 2.68786
upperneck 40.7143 -0.348436 -2.81001
head 16.427 0.598513 -1.58004
rclavicle 1.3067e-014 9.59136e-015
rhumerus -50.3525 12.6614 -79.6655
rradius 39.4822
rwrist -5.23591
rhand -21.399 -20.1584
rfingers 7.12502
rthumb 4.98913 -50.0797
lclavicle 1.3067e-014 9.59136e-015
lhumerus -43.458 2.00533 73.3517
lradius 24.7356
lwrist -25.0744
lhand -25.3244 28.2578
lfingers 7.12502
lthumb 1.19829 58.2342
rfemur -26.2922 10.1059 26.0339
rtibia 28.7596
rfoot -19.57 -18.6951
rtoes -22.5846
lfemur 5.9933 -19.2517 -35.9349
ltibia 6.44476
lfoot -7.62326 -10.8169
ltoes -15.5082
